<?xml version="1.0" encoding="utf-8"?>
<svg viewBox="76.701 130.335 348.904 241.061" xmlns="http://www.w3.org/2000/svg">
  <g stroke-width="2.00" fill="none" stroke-linecap="butt" transform="matrix(0.6951960921287537, 0, 0, 0.6270020604133606, 72.26565551757815, -101.88352966308594)" style="">
    <path stroke="#1e586e" vector-effect="non-scaling-stroke" d=" M 85.76 416.52 C 87.73 426.99 98.81 437.86 108.99 440.75 C 132.87 447.51 153.21 431.59 153.14 407.26 C 153.09 388.39 137.46 375.30 119.41 375.43 C 97.63 375.59 81.79 395.30 85.76 416.52"/>
    <path stroke="#7e3a38" vector-effect="non-scaling-stroke" d=" M 123.07 555.56 Q 125.15 569.11 128.94 581.85"/>
    <path stroke="#720e11" vector-effect="non-scaling-stroke" d=" M 128.94 581.85 C 134.05 595.89 141.15 608.20 151.58 619.08 C 170.53 638.86 192.80 651.15 219.80 655.17 Q 226.76 656.20 239.74 656.21 C 262.87 656.22 285.95 657.48 309.06 657.22"/>
    <path stroke="#5b0508" vector-effect="non-scaling-stroke" d=" M 309.06 657.22 Q 344.47 657.17 379.99 658.07 C 408.53 658.80 414.99 620.99 387.72 611.77 Q 383.84 610.46 377.18 610.46 Q 363.56 610.48 350.59 610.60"/>
    <path stroke="#720e11" vector-effect="non-scaling-stroke" d=" M 350.59 610.60 Q 301.19 609.20 252.52 609.47 Q 244.50 609.51 239.10 609.26 C 223.57 608.54 205.82 603.87 193.85 593.35 C 185.43 585.95 180.68 579.78 175.83 569.17"/>
    <path stroke="#7e3a38" vector-effect="non-scaling-stroke" d=" M 175.83 569.17 Q 171.00 557.28 169.35 544.04"/>
    <path stroke="#5b0508" vector-effect="non-scaling-stroke" d=" M 169.35 544.04 C 170.66 520.36 179.91 500.60 199.93 487.49 C 209.71 481.09 215.60 478.27 226.20 477.12 Q 231.12 476.59 238.32 476.81 Q 270.00 477.77 301.33 477.48"/>
    <path stroke="#510808" vector-effect="non-scaling-stroke" d=" M 301.33 477.48 Q 307.11 477.41 326.75 477.78 Q 373.75 478.67 440.94 478.48 C 444.51 478.47 445.52 476.71 447.93 474.43 Q 468.83 454.69 488.82 432.94 A 0.85 0.84 -60.5 0 0 488.44 431.55 Q 483.36 430.05 477.50 430.07 C 445.29 430.19 413.13 429.16 380.94 429.05 Q 334.47 428.89 287.99 427.93"/>
    <path stroke="#5b0508" vector-effect="non-scaling-stroke" d=" M 287.99 427.93 C 271.06 428.08 254.08 428.17 237.14 427.74 C 207.82 426.99 175.77 441.16 155.32 461.20 C 130.23 485.79 119.55 520.40 123.07 555.56"/>
    <path stroke="#ab0d10" vector-effect="non-scaling-stroke" d=" M 287.99 427.93 L 289.77 428.53 A 0.11 0.11 0.0 0 1 289.74 428.75 Q 289.60 428.75 289.46 428.76 Q 289.06 428.78 289.14 429.16 Q 289.73 432.23 288.94 435.15 C 288.02 438.53 288.65 441.10 288.97 444.38 Q 289.02 444.87 289.33 445.26 C 296.34 454.16 298.29 463.30 302.16 473.57 Q 302.62 474.81 301.33 477.48"/>
    <path stroke="#d83f40" vector-effect="non-scaling-stroke" d=" M 169.35 544.04 Q 147.38 549.94 125.62 555.34 C 124.80 555.55 123.93 555.46 123.07 555.56"/>
    <path stroke="#ef4849" vector-effect="non-scaling-stroke" d=" M 175.83 569.17 Q 151.95 574.39 128.94 581.85"/>
    <path stroke="#cc1319" vector-effect="non-scaling-stroke" d=" M 350.59 610.60 Q 348.49 613.72 345.10 616.34 C 340.93 619.56 337.62 619.04 333.71 623.87 C 328.09 630.82 321.44 635.18 314.70 642.57 C 311.12 646.49 310.02 652.17 309.06 657.22"/>
    <path stroke="#234965" vector-effect="non-scaling-stroke" d=" M 38.77 484.76 C 47.99 500.85 72.49 505.96 87.48 495.33 Q 103.23 484.14 100.93 462.60 C 99.18 446.16 84.20 435.94 69.23 435.26 C 44.34 434.12 26.52 463.36 38.77 484.76"/>
    <path stroke="#233e62" vector-effect="non-scaling-stroke" d=" M 21.15 555.07 C 24.21 567.76 34.69 575.49 47.02 577.56 Q 55.29 578.95 61.56 577.80 C 76.68 575.03 86.35 557.91 85.83 543.84 C 84.65 511.76 44.85 502.10 26.57 526.35 Q 17.22 538.75 21.15 555.07"/>
    <path stroke="#7e3a38" vector-effect="non-scaling-stroke" d=" M 224.80 529.53 Q 220.39 535.47 221.50 542.50 Q 222.97 551.80 230.87 558.97"/>
    <path stroke="#720e11" vector-effect="non-scaling-stroke" d=" M 230.87 558.97 Q 236.16 562.85 244.77 563.98 C 262.85 566.34 281.29 565.68 299.58 566.20 C 332.49 567.14 365.44 566.43 398.40 567.33 C 414.74 567.78 427.51 574.79 438.79 586.19 C 444.99 592.47 448.95 599.79 451.94 607.98"/>
    <path stroke="#5b0508" vector-effect="non-scaling-stroke" d=" M 451.94 607.98 C 461.99 628.58 457.89 651.98 445.28 670.31 Q 443.42 673.01 440.14 675.67 C 436.71 678.44 434.43 680.53 430.93 684.34 Q 429.08 686.34 426.59 687.59 C 417.35 692.23 408.97 696.95 398.03 697.83 C 391.18 698.39 385.36 699.36 379.25 699.45 Q 340.70 699.96 297.50 698.69"/>
    <path stroke="#720e11" vector-effect="non-scaling-stroke" d=" M 297.50 698.69 L 180.73 697.79 Q 180.23 697.79 179.86 698.13 C 165.46 711.64 152.35 726.84 138.26 740.75 Q 136.10 742.89 138.53 744.15 A 1.91 1.86 58.3 0 0 139.33 744.35 C 151.41 744.55 163.64 744.44 175.59 744.94 C 194.90 745.76 219.88 747.25 241.88 746.81 C 260.45 746.45 278.91 746.31 297.72 746.00"/>
    <path stroke="#5b0508" vector-effect="non-scaling-stroke" d=" M 297.72 746.00 L 342.49 746.04"/>
    <path stroke="#510808" vector-effect="non-scaling-stroke" d=" M 342.49 746.04 Q 364.48 746.79 386.47 747.00 C 396.25 747.09 408.19 744.90 416.00 743.24 C 446.01 736.88 473.43 717.11 489.02 690.41 C 494.16 681.61 498.27 673.20 500.69 663.68 Q 502.70 655.76 504.54 647.75"/>
    <path stroke="#5b0508" vector-effect="non-scaling-stroke" d=" M 504.54 647.75 C 505.45 637.13 506.53 625.46 504.32 614.98 Q 501.30 600.65 496.42 587.17"/>
    <path stroke="#720e11" vector-effect="non-scaling-stroke" d=" M 496.42 587.17 C 478.74 548.98 445.16 522.64 402.75 518.75 Q 387.90 517.39 367.50 518.13"/>
    <path stroke="#7e3a38" vector-effect="non-scaling-stroke" d=" M 367.50 518.13 C 347.49 517.95 327.69 518.33 307.77 517.42 Q 288.85 516.56 270.09 517.45"/>
    <path stroke="#5b0508" vector-effect="non-scaling-stroke" d=" M 270.09 517.45 Q 259.14 516.84 248.34 516.36 C 237.23 515.88 230.24 519.93 224.80 529.53"/>
    <path stroke="#d83f40" vector-effect="non-scaling-stroke" d=" M 270.09 517.45 Q 247.96 524.35 224.80 529.53"/>
    <path stroke="#ef4849" vector-effect="non-scaling-stroke" d=" M 367.50 518.13 C 361.64 524.11 353.82 523.41 346.22 525.54 Q 318.14 533.39 290.04 541.16 C 286.03 542.27 281.08 543.05 277.74 543.96 Q 255.42 550.03 233.24 556.62 Q 232.75 556.77 232.42 557.16 L 230.87 558.97"/>
    <path stroke="#cc1319" vector-effect="non-scaling-stroke" d=" M 496.42 587.17 Q 489.55 581.17 482.48 584.97 Q 476.82 588.02 473.04 591.57 C 467.41 596.87 461.45 601.74 456.23 607.49 Q 455.18 608.64 451.94 607.98"/>
    <path stroke="#ab0d10" vector-effect="non-scaling-stroke" d=" M 504.54 647.75 L 498.28 650.47"/>
    <path stroke="#cc1319" vector-effect="non-scaling-stroke" d=" M 498.28 650.47 Q 498.19 650.23 497.78 650.23 Q 497.56 650.23 497.30 650.38 Q 466.85 668.22 436.57 686.31 Q 433.15 688.35 432.95 689.76"/>
    <path stroke="#ab0d10" vector-effect="non-scaling-stroke" d=" M 432.95 689.76 Q 429.46 693.43 426.06 695.06 Q 418.96 698.47 416.52 700.15"/>
    <path stroke="#cc1319" vector-effect="non-scaling-stroke" d=" M 416.52 700.15 Q 415.78 699.17 414.19 700.19 Q 382.54 720.44 350.77 740.50 Q 349.64 741.21 350.31 741.83"/>
    <path stroke="#ab0d10" vector-effect="non-scaling-stroke" d=" M 350.31 741.83 Q 349.40 743.66 349.32 745.61 Q 349.31 746.00 348.92 746.00 L 342.49 746.04"/>
    <path stroke="#cc1319" vector-effect="non-scaling-stroke" d=" M 297.72 746.00 Q 290.41 740.30 292.02 733.50 Q 295.55 718.58 301.90 703.83 A 1.51 1.51 0.0 0 0 300.36 701.73 Q 298.70 701.89 296.33 701.99 Q 295.52 702.02 295.58 701.22 Q 295.61 700.80 296.03 700.80 Q 297.52 700.77 297.50 698.69"/>
    <path stroke="#c21618" vector-effect="non-scaling-stroke" d=" M 350.31 741.83 L 416.52 700.15"/>
    <path stroke="#c21618" vector-effect="non-scaling-stroke" d=" M 432.95 689.76 L 498.28 650.47"/>
    <path stroke="#233e62" vector-effect="non-scaling-stroke" d=" M 58.69 648.56 C 73.32 656.76 93.35 653.89 102.91 638.69 C 115.66 618.43 105.78 589.68 79.68 588.50 Q 76.85 588.37 74.39 587.83 C 65.21 585.81 54.25 593.95 49.34 600.59 C 38.10 615.79 41.75 639.07 58.69 648.56"/>
    <path stroke="#233e62" vector-effect="non-scaling-stroke" d=" M 99.21 683.67 C 102.18 693.69 108.93 701.93 119.51 704.94 C 149.89 713.58 170.30 685.20 158.56 657.95 C 153.00 645.08 136.63 639.44 123.78 641.85 C 104.73 645.43 93.85 665.59 99.21 683.67"/>
    <path stroke="#ef4849" vector-effect="non-scaling-stroke" d=" M 319.81 534.69 Q 314.41 535.48 313.03 535.95 Q 299.11 540.80 284.68 543.67 Q 279.38 544.73 274.86 546.29 C 265.47 549.53 255.67 551.66 247.42 554.83 C 243.76 556.24 239.53 557.12 235.67 558.83 A 0.74 0.73 -29.2 0 0 235.36 559.91 Q 236.00 560.85 236.81 560.25 C 238.97 558.66 241.15 558.19 244.46 557.25 C 248.35 556.15 253.00 553.66 257.73 552.44 Q 266.34 550.21 274.76 547.34 C 282.24 544.79 290.04 543.96 297.90 541.54 C 313.41 536.77 329.29 533.87 344.60 528.58 C 349.22 526.99 354.66 526.21 359.72 524.58 A 0.42 0.42 0.0 0 0 359.56 523.77 C 350.73 524.47 341.99 528.36 333.40 530.48 C 328.54 531.69 324.63 533.99 319.81 534.69"/>
  </g>
  <path fill="#3cafdc" d="M 148.035 174.467 C 140.958 172.655 133.255 165.84 131.886 159.275 C 129.126 145.97 140.138 133.612 155.279 133.512 C 167.828 133.43 178.693 141.638 178.728 153.469 C 178.777 168.724 164.637 178.706 148.035 174.467 Z" style=""/>
  <path fill="#b50a10" d="M 272.475 166.429 L 273.713 166.805 C 273.771 166.813 273.8 166.875 273.763 166.917 C 273.746 166.937 273.719 166.947 273.692 166.943 C 273.627 166.943 273.562 166.946 273.497 166.95 C 273.312 166.958 273.237 167.042 273.275 167.2 C 273.548 168.484 273.502 169.736 273.136 170.956 C 272.496 173.075 272.934 174.687 273.157 176.743 C 273.18 176.948 273.263 177.132 273.407 177.295 C 278.28 182.876 279.636 188.606 282.326 195.046 C 282.539 195.564 282.347 196.381 281.749 197.497 C 267.229 197.619 252.628 197.478 237.945 197.077 C 234.608 196.986 231.8 197.05 229.519 197.271 C 222.15 197.993 218.056 199.761 211.256 203.774 C 197.339 211.994 190.908 224.383 189.997 239.23 C 179.815 241.697 169.681 244.058 159.596 246.316 C 159.026 246.447 158.422 246.391 157.824 246.454 C 155.377 224.408 162.801 202.708 180.244 187.29 C 194.461 174.724 216.742 165.84 237.125 166.31 C 248.901 166.58 260.706 166.523 272.475 166.429 Z" style=""/>
  <path fill="#a10f0f" d="M 272.475 166.429 C 294.017 166.831 315.557 167.065 337.094 167.131 C 359.472 167.2 381.83 167.846 404.222 167.771 C 406.938 167.763 409.473 168.072 411.828 168.699 C 412.247 168.806 412.391 169.278 412.092 169.571 C 402.827 178.662 393.351 187.334 383.665 195.585 C 381.99 197.014 381.288 198.118 378.806 198.124 C 347.665 198.204 321.204 198.058 299.421 197.685 C 290.318 197.531 284.428 197.468 281.749 197.497 C 282.347 196.381 282.539 195.564 282.326 195.046 C 279.636 188.606 278.28 182.876 273.407 177.295 C 273.263 177.132 273.18 176.948 273.157 176.743 C 272.934 174.687 272.496 173.075 273.136 170.956 C 273.502 169.736 273.548 168.484 273.275 167.2 C 273.237 167.042 273.312 166.958 273.497 166.95 C 273.562 166.946 273.627 166.943 273.692 166.943 C 273.75 166.951 273.796 166.898 273.773 166.848 C 273.763 166.826 273.74 166.809 273.713 166.805 L 272.475 166.429 Z" style=""/>
  <path fill="#4691ca" d="M 133.082 208.689 C 122.661 215.354 105.628 212.15 99.219 202.062 C 90.703 188.644 103.091 170.31 120.394 171.025 C 130.801 171.452 141.215 177.86 142.432 188.167 C 143.498 197.171 140.381 204.012 133.082 208.689 Z" style=""/>
  <path fill="#457bc3" d="M 104.954 260.248 C 96.382 258.95 89.097 254.103 86.969 246.146 C 85.148 239.325 86.403 233.322 90.737 228.139 C 103.445 212.934 131.114 218.991 131.935 239.105 C 132.296 247.927 125.574 258.661 115.062 260.398 C 112.156 260.879 108.787 260.829 104.954 260.248 Z" style=""/>
  <path fill="#b50a10" d="M 260.031 222.559 C 249.775 225.443 239.28 227.968 228.546 230.133 C 232.328 224.113 237.187 221.574 244.911 221.875 C 249.916 222.076 254.957 222.304 260.031 222.559 Z" style=""/>
  <path fill="#fb7470" d="M 327.751 222.985 C 323.677 226.734 318.24 226.295 312.957 227.631 C 299.943 230.913 286.924 234.177 273.901 237.425 C 271.113 238.121 267.672 238.61 265.35 239.18 C 255.005 241.718 244.693 244.364 234.413 247.118 C 234.186 247.181 233.996 247.294 233.843 247.457 L 232.766 248.592 C 229.104 245.595 226.933 242.152 226.252 238.265 C 225.737 235.327 226.502 232.616 228.546 230.133 C 239.28 227.968 249.775 225.443 260.031 222.559 C 268.726 222.187 277.457 222.18 286.226 222.54 C 300.075 223.11 313.84 222.872 327.751 222.985 Z" style=""/>
  <path fill="#e31c21" d="M 417.375 266.273 C 414.191 263.765 410.961 263.306 407.684 264.894 C 405.06 266.169 402.873 267.548 401.122 269.032 C 397.208 272.355 393.064 275.409 389.435 279.014 C 388.949 279.495 387.954 279.597 386.453 279.321 C 384.374 274.186 381.621 269.596 377.311 265.659 C 369.469 258.511 360.592 254.116 349.232 253.833 C 326.318 253.269 303.412 253.714 280.533 253.125 C 267.818 252.799 254.998 253.213 242.429 251.733 C 238.439 251.261 235.217 250.214 232.766 248.592 L 233.843 247.457 C 233.996 247.294 234.186 247.181 234.413 247.118 C 244.693 244.364 255.005 241.718 265.35 239.18 C 267.672 238.61 271.113 238.121 273.901 237.425 C 286.924 234.177 299.943 230.913 312.957 227.631 C 318.24 226.295 323.677 226.734 327.751 222.985 C 337.205 222.676 345.374 222.806 352.256 223.374 C 381.739 225.813 405.084 242.328 417.375 266.273 Z M 294.597 233.368 C 292.094 233.698 290.523 233.962 289.883 234.158 C 283.432 236.186 276.862 237.799 270.174 238.999 C 267.718 239.442 265.442 239.989 263.348 240.641 C 256.82 242.673 250.007 244.008 244.271 245.996 C 241.727 246.88 238.786 247.432 236.103 248.504 C 235.813 248.624 235.71 248.947 235.887 249.181 C 236.183 249.574 236.52 249.645 236.895 249.394 C 238.397 248.397 239.912 248.103 242.214 247.513 C 244.918 246.823 248.151 245.262 251.439 244.497 C 255.429 243.566 259.375 242.5 263.278 241.3 C 268.478 239.701 273.901 239.18 279.365 237.663 C 290.147 234.672 301.187 232.854 311.831 229.537 C 315.042 228.54 318.824 228.051 322.342 227.029 C 322.55 226.954 322.591 226.703 322.414 226.578 C 322.361 226.541 322.297 226.521 322.231 226.521 C 316.092 226.96 310.016 229.399 304.044 230.728 C 300.666 231.487 297.947 232.929 294.597 233.368 Z" style=""/>
  <path fill="#fb7470" d="M 294.597 233.368 C 297.947 232.929 300.666 231.487 304.044 230.728 C 310.016 229.399 316.092 226.96 322.231 226.521 C 322.455 226.519 322.598 226.737 322.488 226.914 C 322.455 226.966 322.403 227.007 322.342 227.029 C 318.824 228.051 315.042 228.54 311.831 229.537 C 301.187 232.854 290.147 234.672 279.365 237.663 C 273.901 239.18 268.478 239.701 263.278 241.3 C 259.375 242.5 255.429 243.566 251.439 244.497 C 248.151 245.262 244.918 246.823 242.214 247.513 C 239.912 248.103 238.397 248.397 236.895 249.394 C 236.52 249.645 236.183 249.574 235.887 249.181 C 235.71 248.947 235.813 248.624 236.103 248.504 C 238.786 247.432 241.727 246.88 244.271 245.996 C 250.007 244.008 256.82 242.673 263.348 240.641 C 265.442 239.989 267.718 239.442 270.174 238.999 C 276.862 237.799 283.432 236.186 289.883 234.158 C 290.523 233.962 292.094 233.698 294.597 233.368 Z" style=""/>
  <path fill="#fb7470" d="M 189.997 239.23 C 190.762 244.765 192.264 250.017 194.502 254.987 C 183.435 257.169 172.569 259.819 161.905 262.937 C 160.148 257.612 158.787 252.118 157.824 246.454 C 158.422 246.391 159.026 246.447 159.596 246.316 C 169.681 244.058 179.815 241.697 189.997 239.23 Z" style=""/>
  <path fill="#e31c21" d="M 194.502 254.987 C 197.874 261.64 201.176 265.508 207.03 270.148 C 215.351 276.744 227.691 279.672 238.487 280.124 C 240.99 280.228 244.1 280.272 247.817 280.255 C 270.373 280.142 293.099 280.379 315.995 280.964 C 315.021 282.268 313.749 283.468 312.178 284.563 C 309.279 286.582 306.978 286.256 304.26 289.284 C 300.353 293.642 295.73 296.376 291.044 301.009 C 288.555 303.467 287.791 307.028 287.123 310.195 C 271.057 310.358 255.012 309.568 238.932 309.561 C 232.916 309.558 228.296 309.34 225.07 308.909 C 206.3 306.389 190.818 298.683 177.644 286.281 C 170.393 279.459 165.457 271.741 161.905 262.937 C 172.569 259.819 183.435 257.169 194.502 254.987 Z" style=""/>
  <path fill="#b50a10" d="M 417.375 266.273 C 419.637 271.908 421.467 277.72 422.867 283.71 C 424.404 290.281 423.653 297.598 423.02 304.257 L 418.668 305.962 C 418.627 305.862 418.51 305.812 418.321 305.812 C 418.218 305.812 418.107 305.843 417.987 305.906 C 403.874 313.364 389.801 320.872 375.768 328.434 C 374.183 329.287 373.344 330.008 373.251 330.597 C 371.633 332.132 370.037 333.239 368.461 333.92 C 365.17 335.346 362.959 336.41 361.829 337.112 C 361.486 336.702 360.946 336.711 360.209 337.137 C 345.541 345.601 330.844 354.026 316.12 362.411 C 315.596 362.709 315.489 362.986 315.8 363.245 C 315.378 364.01 315.149 364.8 315.112 365.615 C 315.107 365.778 315.015 365.86 314.834 365.86 L 310.364 365.885 L 279.24 365.86 C 275.851 363.477 274.53 360.865 275.277 358.022 C 276.913 351.786 279.202 345.585 282.146 339.419 C 282.463 338.756 281.872 338.029 281.075 338.103 C 280.305 338.17 279.372 338.224 278.273 338.266 C 277.898 338.278 277.724 338.118 277.752 337.783 C 277.766 337.607 277.87 337.519 278.065 337.519 C 278.755 337.507 279.096 337.066 279.087 336.196 C 299.108 336.727 318.053 336.886 335.919 336.673 C 340.167 336.617 344.213 336.008 348.975 335.657 C 356.58 335.105 362.406 332.146 368.83 329.237 C 369.984 328.714 370.989 328.035 371.847 327.199 C 374.28 324.81 375.865 323.5 378.25 321.763 C 379.769 320.651 380.961 319.531 381.823 318.402 C 390.589 306.909 393.44 292.237 386.453 279.321 C 387.954 279.597 388.949 279.495 389.435 279.014 C 393.064 275.409 397.208 272.355 401.122 269.032 C 402.873 267.548 405.06 266.169 407.684 264.894 C 410.961 263.306 414.191 263.765 417.375 266.273 Z" style=""/>
  <path fill="#457bc3" d="M 113.067 304.765 C 101.29 298.815 98.753 284.218 106.567 274.687 C 109.98 270.524 117.6 265.42 123.982 266.687 C 125.122 266.913 126.347 267.053 127.659 267.107 C 145.804 267.847 152.672 285.873 143.809 298.576 C 137.162 308.107 123.238 309.906 113.067 304.765 Z" style=""/>
  <path fill="#b50a10" d="M 315.995 280.964 C 322.005 280.914 328.168 280.885 334.48 280.876 C 337.567 280.876 340.009 281.15 341.807 281.697 C 360.765 287.478 356.274 311.185 336.434 310.728 C 319.971 310.351 303.534 310.174 287.123 310.195 C 287.791 307.028 288.555 303.467 291.044 301.009 C 295.73 296.376 300.353 293.642 304.26 289.284 C 306.978 286.256 309.279 286.582 312.178 284.563 C 313.749 283.468 315.021 282.268 315.995 280.964 Z" style=""/>
  <path fill="#457bc3" d="M 155.349 340.115 C 147.994 338.228 143.301 333.061 141.236 326.779 C 137.51 315.443 145.074 302.802 158.317 300.558 C 167.251 299.047 178.631 302.583 182.496 310.652 C 190.658 327.738 176.469 345.532 155.349 340.115 Z" style=""/>
  <path fill="#a10f0f" d="M 423.02 304.257 C 422.167 307.605 421.275 310.934 420.344 314.245 C 418.661 320.214 415.804 325.487 412.231 331.005 C 401.393 347.746 382.33 360.142 361.468 364.129 C 356.038 365.17 347.737 366.543 340.938 366.487 C 330.747 366.399 320.555 366.198 310.364 365.885 L 314.834 365.86 C 315.015 365.86 315.107 365.778 315.112 365.615 C 315.149 364.8 315.378 364.01 315.8 363.245 L 361.829 337.112 C 362.959 336.41 365.17 335.346 368.461 333.92 C 370.037 333.239 371.633 332.132 373.251 330.597 L 418.668 305.962 L 423.02 304.257 Z" style=""/>
  <path fill="#e31c21" d="M 418.668 305.962 L 373.251 330.597 C 373.344 330.008 374.183 329.287 375.768 328.434 C 389.801 320.872 403.874 313.364 417.987 305.906 C 418.107 305.843 418.218 305.812 418.321 305.812 C 418.51 305.812 418.627 305.862 418.668 305.962 Z" style=""/>
  <path fill="#e31c21" d="M 279.087 336.196 C 279.096 337.066 278.755 337.507 278.065 337.519 C 277.87 337.519 277.766 337.607 277.752 337.783 C 277.724 338.118 277.898 338.278 278.273 338.266 C 279.372 338.224 280.305 338.17 281.075 338.103 C 281.872 338.029 282.463 338.756 282.146 339.419 C 279.202 345.585 276.913 351.786 275.277 358.022 C 274.53 360.865 275.851 363.477 279.24 365.86 C 266.163 366.054 253.33 366.142 240.42 366.368 C 225.126 366.644 207.76 365.709 194.335 365.195 C 186.028 364.882 177.526 364.951 169.128 364.825 C 168.935 364.822 168.745 364.779 168.571 364.7 C 167.445 364.173 167.383 363.463 168.384 362.568 C 178.179 353.847 187.293 344.316 197.304 335.845 C 197.475 335.704 197.677 335.632 197.909 335.632 L 279.087 336.196 Z" style=""/>
  <path fill="#e31c21" d="M 361.829 337.112 L 315.8 363.245 C 315.489 362.986 315.596 362.709 316.12 362.411 C 330.844 354.026 345.541 345.601 360.209 337.137 C 360.946 336.711 361.486 336.702 361.829 337.112 Z" style=""/>
</svg>