<?xml version="1.0" encoding="utf-8"?>
<svg viewBox="-107.797 -35.199 887.189 249.207" xmlns="http://www.w3.org/2000/svg">
  <g stroke-width="2.00" fill="none" stroke-linecap="butt" transform="matrix(0.6951960921287537, 0, 0, 0.6270020604133606, -113.72337341308571, -265.1506042480469)" style="">
    <path stroke="#1e586e" vector-effect="non-scaling-stroke" d=" M 85.76 416.52 C 87.73 426.99 98.81 437.86 108.99 440.75 C 132.87 447.51 153.21 431.59 153.14 407.26 C 153.09 388.39 137.46 375.30 119.41 375.43 C 97.63 375.59 81.79 395.30 85.76 416.52"/>
    <path stroke="#7e3a38" vector-effect="non-scaling-stroke" d=" M 123.07 555.56 Q 125.15 569.11 128.94 581.85"/>
    <path stroke="#720e11" vector-effect="non-scaling-stroke" d=" M 128.94 581.85 C 134.05 595.89 141.15 608.20 151.58 619.08 C 170.53 638.86 192.80 651.15 219.80 655.17 Q 226.76 656.20 239.74 656.21 C 262.87 656.22 285.95 657.48 309.06 657.22"/>
    <path stroke="#5b0508" vector-effect="non-scaling-stroke" d=" M 309.06 657.22 Q 344.47 657.17 379.99 658.07 C 408.53 658.80 414.99 620.99 387.72 611.77 Q 383.84 610.46 377.18 610.46 Q 363.56 610.48 350.59 610.60"/>
    <path stroke="#720e11" vector-effect="non-scaling-stroke" d=" M 350.59 610.60 Q 301.19 609.20 252.52 609.47 Q 244.50 609.51 239.10 609.26 C 223.57 608.54 205.82 603.87 193.85 593.35 C 185.43 585.95 180.68 579.78 175.83 569.17"/>
    <path stroke="#7e3a38" vector-effect="non-scaling-stroke" d=" M 175.83 569.17 Q 171.00 557.28 169.35 544.04"/>
    <path stroke="#5b0508" vector-effect="non-scaling-stroke" d=" M 169.35 544.04 C 170.66 520.36 179.91 500.60 199.93 487.49 C 209.71 481.09 215.60 478.27 226.20 477.12 Q 231.12 476.59 238.32 476.81 Q 270.00 477.77 301.33 477.48"/>
    <path stroke="#510808" vector-effect="non-scaling-stroke" d=" M 301.33 477.48 Q 307.11 477.41 326.75 477.78 Q 373.75 478.67 440.94 478.48 C 444.51 478.47 445.52 476.71 447.93 474.43 Q 468.83 454.69 488.82 432.94 A 0.85 0.84 -60.5 0 0 488.44 431.55 Q 483.36 430.05 477.50 430.07 C 445.29 430.19 413.13 429.16 380.94 429.05 Q 334.47 428.89 287.99 427.93"/>
    <path stroke="#5b0508" vector-effect="non-scaling-stroke" d=" M 287.99 427.93 C 271.06 428.08 254.08 428.17 237.14 427.74 C 207.82 426.99 175.77 441.16 155.32 461.20 C 130.23 485.79 119.55 520.40 123.07 555.56"/>
    <path stroke="#ab0d10" vector-effect="non-scaling-stroke" d=" M 287.99 427.93 L 289.77 428.53 A 0.11 0.11 0.0 0 1 289.74 428.75 Q 289.60 428.75 289.46 428.76 Q 289.06 428.78 289.14 429.16 Q 289.73 432.23 288.94 435.15 C 288.02 438.53 288.65 441.10 288.97 444.38 Q 289.02 444.87 289.33 445.26 C 296.34 454.16 298.29 463.30 302.16 473.57 Q 302.62 474.81 301.33 477.48"/>
    <path stroke="#d83f40" vector-effect="non-scaling-stroke" d=" M 169.35 544.04 Q 147.38 549.94 125.62 555.34 C 124.80 555.55 123.93 555.46 123.07 555.56"/>
    <path stroke="#ef4849" vector-effect="non-scaling-stroke" d=" M 175.83 569.17 Q 151.95 574.39 128.94 581.85"/>
    <path stroke="#cc1319" vector-effect="non-scaling-stroke" d=" M 350.59 610.60 Q 348.49 613.72 345.10 616.34 C 340.93 619.56 337.62 619.04 333.71 623.87 C 328.09 630.82 321.44 635.18 314.70 642.57 C 311.12 646.49 310.02 652.17 309.06 657.22"/>
    <path stroke="#7e3a38" vector-effect="non-scaling-stroke" d=" M 513.07 461.71 L 512.88 487.23"/>
    <path stroke="#720e11" vector-effect="non-scaling-stroke" d=" M 512.88 487.23 Q 511.83 498.78 514.75 508.00 Q 515.78 511.24 518.45 515.49"/>
    <path stroke="#5b0508" vector-effect="non-scaling-stroke" d=" M 518.45 515.49 Q 526.52 526.15 538.18 530.57 Q 541.42 531.80 545.88 531.89 Q 592.57 532.76 639.67 533.14"/>
    <path stroke="#510808" vector-effect="non-scaling-stroke" d=" M 639.67 533.14 Q 642.41 532.77 642.57 535.24 Q 643.35 547.14 642.89 559.18 A 0.97 0.97 0.0 0 1 641.94 560.11 C 613.82 560.47 586.15 559.61 557.65 559.42 C 547.98 559.36 550.16 554.37 549.13 546.91 A 0.73 0.71 -2.8 0 0 548.43 546.29 L 514.63 545.16 A 1.67 1.66 5.8 0 0 512.94 546.53 C 509.65 564.82 513.61 581.59 529.72 592.27 C 538.00 597.76 550.60 598.10 560.35 598.02 Q 596.94 597.71 633.51 598.75 C 656.63 599.41 672.14 594.90 679.82 571.17 Q 681.00 567.53 681.01 562.18 Q 681.04 547.11 681.24 532.07 Q 681.31 526.38 679.33 520.35"/>
    <path stroke="#5b0508" vector-effect="non-scaling-stroke" d=" M 679.33 520.35 C 673.91 504.13 659.04 495.19 642.49 495.08 Q 603.80 494.84 577.12 493.89"/>
    <path stroke="#720e11" vector-effect="non-scaling-stroke" d=" M 577.12 493.89 Q 563.97 494.70 552.29 493.95 A 1.64 1.64 0.0 0 1 550.75 492.35 L 550.46 478.85"/>
    <path stroke="#7e3a38" vector-effect="non-scaling-stroke" d=" M 550.46 478.85 L 550.85 470.19 A 3.57 3.57 0.0 0 1 554.44 466.78 L 604.99 467.11"/>
    <path stroke="#720e11" vector-effect="non-scaling-stroke" d=" M 604.99 467.11 L 643.19 468.17 A 0.64 0.63 90.0 0 1 643.81 468.80 L 644.07 480.08 A 0.93 0.92 -0.9 0 0 645.01 480.98 Q 658.88 480.94 672.93 481.28 Q 676.65 481.37 680.25 480.82 A 1.19 1.18 -89.3 0 0 681.23 479.86 C 682.80 471.09 682.64 462.36 679.85 453.79"/>
    <path stroke="#7e3a38" vector-effect="non-scaling-stroke" d=" M 679.85 453.79 Q 672.85 439.23 658.18 432.58"/>
    <path stroke="#510808" vector-effect="non-scaling-stroke" d=" M 658.18 432.58 Q 654.77 431.41 651.50 431.20 C 637.41 430.29 623.28 430.96 609.17 430.47 C 588.57 429.75 567.95 429.96 547.34 430.01 Q 540.25 430.03 536.46 431.40 C 523.64 436.02 515.01 448.58 513.07 461.71"/>
    <path stroke="#ce4240" vector-effect="non-scaling-stroke" d=" M 658.18 432.58 Q 657.11 433.53 655.24 433.71 Q 650.03 434.22 637.93 436.39 Q 583.50 446.14 529.42 457.68 C 524.36 458.76 518.62 460.47 513.07 461.71"/>
    <path stroke="#ef4849" vector-effect="non-scaling-stroke" d=" M 679.85 453.79 C 659.59 457.09 639.81 462.41 618.82 462.59 Q 613.79 462.63 605.45 465.73 Q 605.01 465.88 604.93 466.34 Q 604.86 466.74 604.99 467.11"/>
    <path stroke="#ef4849" vector-effect="non-scaling-stroke" d=" M 550.46 478.85 L 512.88 487.23"/>
    <path stroke="#cc1319" vector-effect="non-scaling-stroke" d=" M 577.12 493.89 C 576.51 497.63 574.24 500.31 570.34 501.25 C 559.62 503.83 548.55 506.25 538.32 509.30 Q 528.49 512.24 518.45 515.49"/>
    <path stroke="#ab0d10" vector-effect="non-scaling-stroke" d=" M 679.33 520.35 Q 658.23 523.84 639.67 533.14"/>
    <path stroke="#720e11" vector-effect="non-scaling-stroke" d=" M 705.82 446.49 L 705.79 494.39"/>
    <path stroke="#5b0508" vector-effect="non-scaling-stroke" d=" M 705.79 494.39 L 704.85 545.39"/>
    <path stroke="#420504" vector-effect="non-scaling-stroke" d=" M 704.85 545.39 L 704.81 597.48 A 1.47 1.46 1.9 0 0 706.18 598.94 C 740.24 601.06 774.44 599.50 808.56 600.38 Q 831.15 600.97 853.75 600.86 Q 855.85 600.85 857.61 600.71 A 1.77 1.76 -85.2 0 0 859.18 599.38 Q 860.13 595.66 860.08 591.75 Q 859.90 577.74 859.68 563.75 A 0.76 0.75 88.8 0 0 858.92 563.01 Q 840.65 563.10 822.25 562.41 C 800.73 561.60 779.11 562.01 757.56 561.82 Q 751.15 561.77 745.05 561.14 A 1.56 1.55 -1.4 0 1 743.68 559.85 C 742.82 554.74 741.21 539.26 744.63 535.17 A 1.41 1.35 13.8 0 1 745.46 534.69 Q 749.46 533.96 752.50 533.96 C 767.63 533.95 784.55 534.75 800.01 534.75 Q 818.49 534.75 836.78 534.75 A 0.97 0.97 0.0 0 0 837.75 533.78 L 837.75 498.94 A 1.05 1.04 2.4 0 0 836.79 497.90 L 823.21 496.88"/>
    <path stroke="#5b0508" vector-effect="non-scaling-stroke" d=" M 823.21 496.88 L 745.65 496.00 Q 743.83 495.98 743.76 494.15 L 743.68 491.76"/>
    <path stroke="#720e11" vector-effect="non-scaling-stroke" d=" M 743.68 491.76 Q 743.34 481.59 743.67 471.96 C 743.75 469.60 744.63 468.84 746.94 468.83 C 785.92 468.56 822.83 469.62 860.56 469.48 A 0.95 0.94 -90.0 0 0 861.50 468.53 L 861.50 434.78 A 1.22 1.22 0.0 0 0 860.34 433.56 C 831.26 431.90 801.88 432.34 772.98 432.55"/>
    <path stroke="#7e3a38" vector-effect="non-scaling-stroke" d=" M 772.98 432.55 L 707.01 431.82 Q 706.49 431.82 706.47 432.34 L 705.82 446.49"/>
    <path stroke="#ef4849" vector-effect="non-scaling-stroke" d=" M 772.98 432.55 Q 772.98 434.28 770.81 436.27 A 1.53 1.47 18.5 0 1 770.03 436.64 C 748.50 439.68 727.29 441.90 705.82 446.49"/>
    <path stroke="#cc1319" vector-effect="non-scaling-stroke" d=" M 743.68 491.76 Q 738.88 490.66 736.75 490.97 Q 721.33 493.22 705.79 494.39"/>
    <path stroke="#9d0a0c" vector-effect="non-scaling-stroke" d=" M 823.21 496.88 Q 824.31 498.86 823.30 499.56 C 817.49 503.56 810.29 504.33 804.46 506.36 Q 779.91 514.90 755.92 524.84 C 739.05 531.84 721.77 537.92 704.85 545.39"/>
    <path stroke="#5b0508" vector-effect="non-scaling-stroke" d=" M 925.45 470.39 L 937.05 470.47 Q 937.56 470.48 937.73 470.96 C 940.09 477.89 938.75 487.16 938.72 494.55"/>
    <path stroke="#420504" vector-effect="non-scaling-stroke" d=" M 938.72 494.55 C 938.83 504.97 938.20 516.15 938.26 525.82 Q 938.51 562.67 937.47 599.50 Q 937.41 601.77 939.55 601.76 Q 955.66 601.67 971.74 602.29 C 975.75 602.44 975.35 599.14 975.32 596.50 C 974.99 574.05 976.12 551.67 975.94 529.25 Q 975.72 503.06 976.97 476.53"/>
    <path stroke="#5b0508" vector-effect="non-scaling-stroke" d=" M 976.97 476.53 L 977.32 472.09 A 0.62 0.62 0.0 0 1 977.94 471.52 C 998.86 471.29 1019.80 471.21 1041.05 471.55 Q 1041.92 471.57 1041.96 470.70 C 1042.47 460.40 1043.64 449.52 1042.65 439.30"/>
    <path stroke="#720e11" vector-effect="non-scaling-stroke" d=" M 1042.65 439.30 L 1041.96 435.41 Q 1041.84 434.76 1041.18 434.76 L 873.85 433.28 Q 873.02 433.27 872.96 434.10 Q 871.77 450.90 872.43 467.72 Q 872.49 469.27 874.04 469.36 Q 899.36 470.89 925.45 470.39"/>
    <path stroke="#cc1319" vector-effect="non-scaling-stroke" d=" M 1042.65 439.30 C 1034.25 440.91 1025.54 442.30 1017.50 444.15 Q 979.17 452.96 932.32 465.59 Q 927.36 466.93 925.45 470.39"/>
    <path stroke="#9d0a0c" vector-effect="non-scaling-stroke" d=" M 976.97 476.53 C 961.69 479.00 952.32 488.89 938.72 494.55"/>
    <path stroke="#510808" vector-effect="non-scaling-stroke" d=" M 1058.96 447.54 Q 1059.24 475.50 1058.34 503.51 C 1057.50 529.52 1058.36 555.49 1057.29 581.52 Q 1056.86 591.96 1058.33 602.46 Q 1058.42 603.12 1059.09 603.13 L 1092.87 603.62 A 2.19 2.18 -89.3 0 0 1095.08 601.45 L 1096.39 452.03"/>
    <path stroke="#5b0508" vector-effect="non-scaling-stroke" d=" M 1096.39 452.03 Q 1097.16 443.77 1096.46 437.08 A 1.30 1.29 -1.1 0 0 1095.27 435.94 Q 1077.56 434.69 1059.80 435.30 A 0.83 0.83 0.0 0 0 1059.00 436.13 L 1058.96 447.54"/>
    <path stroke="#ab0d10" vector-effect="non-scaling-stroke" d=" M 1096.39 452.03 Q 1088.13 451.12 1079.79 450.32 C 1073.04 449.68 1066.10 449.61 1058.96 447.54"/>
    <path stroke="#234965" vector-effect="non-scaling-stroke" d=" M 38.77 484.76 C 47.99 500.85 72.49 505.96 87.48 495.33 Q 103.23 484.14 100.93 462.60 C 99.18 446.16 84.20 435.94 69.23 435.26 C 44.34 434.12 26.52 463.36 38.77 484.76"/>
    <path stroke="#5b0508" vector-effect="non-scaling-stroke" d=" M 1108.24 475.59 L 1107.59 601.95 A 1.49 1.48 90.0 0 0 1109.07 603.44 L 1143.42 603.51 Q 1145.27 603.51 1145.26 601.66 C 1145.21 581.63 1144.98 561.55 1146.24 541.47 Q 1146.39 539.04 1149.71 538.19"/>
    <path stroke="#720e11" vector-effect="non-scaling-stroke" d=" M 1149.71 538.19 L 1239.69 538.93 A 1.57 1.57 0.0 0 0 1241.27 537.35 Q 1241.13 520.79 1241.53 505.02 C 1241.57 503.47 1241.91 502.15 1240.02 501.76 Q 1236.91 501.13 1233.75 501.11 Q 1191.98 500.90 1150.19 500.12 C 1148.38 500.09 1146.57 498.98 1146.44 497.24 Q 1145.63 486.36 1146.16 474.72 A 1.15 1.14 0.3 0 1 1147.28 473.62 C 1185.20 472.55 1223.96 474.08 1261.20 473.95 Q 1264.62 473.94 1264.74 470.51 Q 1265.24 455.23 1264.88 438.90 A 1.91 1.91 0.0 0 0 1262.97 437.03 Q 1228.00 436.98 1192.06 436.64 C 1185.36 436.58 1176.87 436.05 1169.55 436.03 Q 1139.56 435.95 1109.72 436.02 A 0.79 0.79 0.0 0 0 1108.93 436.79 L 1108.24 475.59"/>
    <path stroke="#cc1319" vector-effect="non-scaling-stroke" d=" M 1149.71 538.19 Q 1146.87 533.73 1142.49 530.65 A 1.09 1.08 47.4 0 0 1141.32 530.60 Q 1125.93 539.65 1111.13 549.64 Q 1111.06 549.69 1111.00 549.62 Q 1110.91 549.53 1110.81 549.44 Q 1110.69 549.32 1110.81 549.21 C 1119.50 541.42 1131.50 534.94 1141.38 528.89 A 1.02 1.01 -30.3 0 0 1141.74 527.54 Q 1136.43 517.90 1135.16 506.95 C 1133.98 496.71 1120.87 483.47 1113.41 476.31 Q 1111.74 474.70 1108.24 475.59"/>
    <path stroke="#233e62" vector-effect="non-scaling-stroke" d=" M 21.15 555.07 C 24.21 567.76 34.69 575.49 47.02 577.56 Q 55.29 578.95 61.56 577.80 C 76.68 575.03 86.35 557.91 85.83 543.84 C 84.65 511.76 44.85 502.10 26.57 526.35 Q 17.22 538.75 21.15 555.07"/>
    <path stroke="#7e3a38" vector-effect="non-scaling-stroke" d=" M 224.80 529.53 Q 220.39 535.47 221.50 542.50 Q 222.97 551.80 230.87 558.97"/>
    <path stroke="#720e11" vector-effect="non-scaling-stroke" d=" M 230.87 558.97 Q 236.16 562.85 244.77 563.98 C 262.85 566.34 281.29 565.68 299.58 566.20 C 332.49 567.14 365.44 566.43 398.40 567.33 C 414.74 567.78 427.51 574.79 438.79 586.19 C 444.99 592.47 448.95 599.79 451.94 607.98"/>
    <path stroke="#5b0508" vector-effect="non-scaling-stroke" d=" M 451.94 607.98 C 461.99 628.58 457.89 651.98 445.28 670.31 Q 443.42 673.01 440.14 675.67 C 436.71 678.44 434.43 680.53 430.93 684.34 Q 429.08 686.34 426.59 687.59 C 417.35 692.23 408.97 696.95 398.03 697.83 C 391.18 698.39 385.36 699.36 379.25 699.45 Q 340.70 699.96 297.50 698.69"/>
    <path stroke="#720e11" vector-effect="non-scaling-stroke" d=" M 297.50 698.69 L 180.73 697.79 Q 180.23 697.79 179.86 698.13 C 165.46 711.64 152.35 726.84 138.26 740.75 Q 136.10 742.89 138.53 744.15 A 1.91 1.86 58.3 0 0 139.33 744.35 C 151.41 744.55 163.64 744.44 175.59 744.94 C 194.90 745.76 219.88 747.25 241.88 746.81 C 260.45 746.45 278.91 746.31 297.72 746.00"/>
    <path stroke="#5b0508" vector-effect="non-scaling-stroke" d=" M 297.72 746.00 L 342.49 746.04"/>
    <path stroke="#510808" vector-effect="non-scaling-stroke" d=" M 342.49 746.04 Q 364.48 746.79 386.47 747.00 C 396.25 747.09 408.19 744.90 416.00 743.24 C 446.01 736.88 473.43 717.11 489.02 690.41 C 494.16 681.61 498.27 673.20 500.69 663.68 Q 502.70 655.76 504.54 647.75"/>
    <path stroke="#5b0508" vector-effect="non-scaling-stroke" d=" M 504.54 647.75 C 505.45 637.13 506.53 625.46 504.32 614.98 Q 501.30 600.65 496.42 587.17"/>
    <path stroke="#720e11" vector-effect="non-scaling-stroke" d=" M 496.42 587.17 C 478.74 548.98 445.16 522.64 402.75 518.75 Q 387.90 517.39 367.50 518.13"/>
    <path stroke="#7e3a38" vector-effect="non-scaling-stroke" d=" M 367.50 518.13 C 347.49 517.95 327.69 518.33 307.77 517.42 Q 288.85 516.56 270.09 517.45"/>
    <path stroke="#5b0508" vector-effect="non-scaling-stroke" d=" M 270.09 517.45 Q 259.14 516.84 248.34 516.36 C 237.23 515.88 230.24 519.93 224.80 529.53"/>
    <path stroke="#d83f40" vector-effect="non-scaling-stroke" d=" M 270.09 517.45 Q 247.96 524.35 224.80 529.53"/>
    <path stroke="#ef4849" vector-effect="non-scaling-stroke" d=" M 367.50 518.13 C 361.64 524.11 353.82 523.41 346.22 525.54 Q 318.14 533.39 290.04 541.16 C 286.03 542.27 281.08 543.05 277.74 543.96 Q 255.42 550.03 233.24 556.62 Q 232.75 556.77 232.42 557.16 L 230.87 558.97"/>
    <path stroke="#cc1319" vector-effect="non-scaling-stroke" d=" M 496.42 587.17 Q 489.55 581.17 482.48 584.97 Q 476.82 588.02 473.04 591.57 C 467.41 596.87 461.45 601.74 456.23 607.49 Q 455.18 608.64 451.94 607.98"/>
    <path stroke="#ab0d10" vector-effect="non-scaling-stroke" d=" M 504.54 647.75 L 498.28 650.47"/>
    <path stroke="#cc1319" vector-effect="non-scaling-stroke" d=" M 498.28 650.47 Q 498.19 650.23 497.78 650.23 Q 497.56 650.23 497.30 650.38 Q 466.85 668.22 436.57 686.31 Q 433.15 688.35 432.95 689.76"/>
    <path stroke="#ab0d10" vector-effect="non-scaling-stroke" d=" M 432.95 689.76 Q 429.46 693.43 426.06 695.06 Q 418.96 698.47 416.52 700.15"/>
    <path stroke="#cc1319" vector-effect="non-scaling-stroke" d=" M 416.52 700.15 Q 415.78 699.17 414.19 700.19 Q 382.54 720.44 350.77 740.50 Q 349.64 741.21 350.31 741.83"/>
    <path stroke="#ab0d10" vector-effect="non-scaling-stroke" d=" M 350.31 741.83 Q 349.40 743.66 349.32 745.61 Q 349.31 746.00 348.92 746.00 L 342.49 746.04"/>
    <path stroke="#cc1319" vector-effect="non-scaling-stroke" d=" M 297.72 746.00 Q 290.41 740.30 292.02 733.50 Q 295.55 718.58 301.90 703.83 A 1.51 1.51 0.0 0 0 300.36 701.73 Q 298.70 701.89 296.33 701.99 Q 295.52 702.02 295.58 701.22 Q 295.61 700.80 296.03 700.80 Q 297.52 700.77 297.50 698.69"/>
    <path stroke="#c21618" vector-effect="non-scaling-stroke" d=" M 350.31 741.83 L 416.52 700.15"/>
    <path stroke="#c21618" vector-effect="non-scaling-stroke" d=" M 432.95 689.76 L 498.28 650.47"/>
    <path stroke="#233e62" vector-effect="non-scaling-stroke" d=" M 58.69 648.56 C 73.32 656.76 93.35 653.89 102.91 638.69 C 115.66 618.43 105.78 589.68 79.68 588.50 Q 76.85 588.37 74.39 587.83 C 65.21 585.81 54.25 593.95 49.34 600.59 C 38.10 615.79 41.75 639.07 58.69 648.56"/>
    <path stroke="#1e586e" vector-effect="non-scaling-stroke" d=" M 526.19 679.24 L 526.15 715.26"/>
    <path stroke="#166e79" vector-effect="non-scaling-stroke" d=" M 526.15 715.26 L 525.98 742.98 Q 525.97 743.50 526.50 743.50 L 1069.78 743.50 Q 1070.38 743.50 1070.44 742.90 Q 1071.76 730.42 1070.13 717.96 Q 1070.05 717.37 1069.45 717.34 Q 1065.98 717.20 1062.50 717.19 Q 815.35 717.00 568.20 717.00 C 567.43 717.00 566.44 716.65 565.73 716.38"/>
    <path stroke="#1e586e" vector-effect="non-scaling-stroke" d=" M 565.73 716.38 C 562.31 714.51 561.33 711.99 561.28 707.97 Q 561.11 693.97 561.08 680.02"/>
    <path stroke="#234965" vector-effect="non-scaling-stroke" d=" M 561.08 680.02 L 561.18 627.49 A 1.24 1.24 0.0 0 0 559.94 626.25 L 527.75 626.25 A 0.95 0.95 0.0 0 0 526.80 627.19 L 526.19 679.24"/>
    <path stroke="#41a0d3" vector-effect="non-scaling-stroke" d=" M 561.08 680.02 C 551.10 676.85 536.66 678.02 526.19 679.24"/>
    <path stroke="#34c5e7" vector-effect="non-scaling-stroke" d=" M 565.73 716.38 Q 563.60 717.96 562.32 716.75 Q 558.98 713.58 555.50 713.33 Q 543.25 712.45 530.01 712.48 A 1.56 1.56 0.0 0 0 528.45 714.10 Q 528.52 715.83 526.15 715.26"/>
    <path stroke="#234965" vector-effect="non-scaling-stroke" d=" M 1233.39 659.11 C 1238.66 664.68 1239.03 669.56 1240.36 676.06"/>
    <path stroke="#166e79" vector-effect="non-scaling-stroke" d=" M 1240.36 676.06 Q 1240.59 679.51 1241.43 682.55 C 1242.10 684.96 1240.65 688.47 1240.35 691.14 C 1239.33 700.13 1231.18 717.01 1220.25 717.00 Q 1160.86 716.99 1099.25 717.03 Q 1097.75 717.03 1097.75 718.53 L 1097.75 742.99 Q 1097.75 743.50 1098.26 743.50 Q 1160.46 743.50 1222.67 743.51 C 1260.69 743.51 1271.17 707.50 1268.13 676.51"/>
    <path stroke="#234965" vector-effect="non-scaling-stroke" d=" M 1268.13 676.51 Q 1267.28 664.68 1263.43 655.40"/>
    <path stroke="#233e62" vector-effect="non-scaling-stroke" d=" M 1263.43 655.40 C 1257.66 640.87 1246.38 631.82 1231.81 627.99 Q 1226.47 626.58 1217.06 626.48 C 1172.65 626.01 1132.08 626.84 1090.58 626.35 C 1081.44 626.24 1071.04 626.65 1061.25 626.52 C 988.58 625.53 915.79 626.24 843.11 626.26 C 831.36 626.27 820.70 625.92 806.76 626.67 Q 806.27 626.70 806.24 627.20 Q 805.60 638.20 806.45 649.21 A 0.85 0.85 0.0 0 0 807.30 650.00 Q 1011.01 650.00 1215.00 650.01 C 1223.47 650.01 1227.74 652.67 1233.39 659.11"/>
    <path stroke="#4686c7" vector-effect="non-scaling-stroke" d=" M 1263.43 655.40 Q 1251.61 656.33 1240.08 656.70 C 1238.62 656.75 1237.32 657.36 1235.97 657.86 Q 1235.50 658.03 1235.02 657.97 Q 1233.99 657.86 1233.39 659.11"/>
    <path stroke="#39b6de" vector-effect="non-scaling-stroke" d=" M 1268.13 676.51 C 1259.14 675.92 1249.29 674.33 1240.36 676.06"/>
    <path stroke="#233e62" vector-effect="non-scaling-stroke" d=" M 99.21 683.67 C 102.18 693.69 108.93 701.93 119.51 704.94 C 149.89 713.58 170.30 685.20 158.56 657.95 C 153.00 645.08 136.63 639.44 123.78 641.85 C 104.73 645.43 93.85 665.59 99.21 683.67"/>
    <path stroke="#1e586e" vector-effect="non-scaling-stroke" d=" M 1071.21 671.40 A 1.89 1.89 0.0 0 0 1069.32 669.51 L 807.90 669.51 A 1.89 1.89 0.0 0 0 806.01 671.40 L 806.01 694.86 A 1.89 1.89 0.0 0 0 807.90 696.75 L 1069.32 696.75 A 1.89 1.89 0.0 0 0 1071.21 694.86 L 1071.21 671.40"/>
    <path stroke="#c21618" vector-effect="non-scaling-stroke" d=" M 1091.1887 562.0506 A 0.27 0.27 0.0 0 0 1090.8128 561.9836 L 1060.3524 583.2331 A 0.27 0.27 0.0 0 0 1060.2854 583.6090 L 1060.4113 583.7894 A 0.27 0.27 0.0 0 0 1060.7872 583.8564 L 1091.2476 562.6069 A 0.27 0.27 0.0 0 0 1091.3146 562.2310 L 1091.1887 562.0506"/>
    <path stroke="#ef4849" vector-effect="non-scaling-stroke" d=" M 319.81 534.69 Q 314.41 535.48 313.03 535.95 Q 299.11 540.80 284.68 543.67 Q 279.38 544.73 274.86 546.29 C 265.47 549.53 255.67 551.66 247.42 554.83 C 243.76 556.24 239.53 557.12 235.67 558.83 A 0.74 0.73 -29.2 0 0 235.36 559.91 Q 236.00 560.85 236.81 560.25 C 238.97 558.66 241.15 558.19 244.46 557.25 C 248.35 556.15 253.00 553.66 257.73 552.44 Q 266.34 550.21 274.76 547.34 C 282.24 544.79 290.04 543.96 297.90 541.54 C 313.41 536.77 329.29 533.87 344.60 528.58 C 349.22 526.99 354.66 526.21 359.72 524.58 A 0.42 0.42 0.0 0 0 359.56 523.77 C 350.73 524.47 341.99 528.36 333.40 530.48 C 328.54 531.69 324.63 533.99 319.81 534.69"/>
  </g>
  <path fill="#3cafdc" d="M -37.954 11.2 C -45.031 9.388 -52.734 2.573 -54.103 -3.992 C -56.863 -17.297 -45.851 -29.655 -30.71 -29.755 C -18.161 -29.837 -7.296 -21.629 -7.261 -9.798 C -7.212 5.457 -21.352 15.439 -37.954 11.2 Z" style="" transform="matrix(1, 0, 0, 1, 2.2737367544323206e-13, 0)"/>
  <path fill="#b50a10" d="M 86.486 3.162 L 87.724 3.538 C 87.782 3.546 87.811 3.608 87.774 3.65 C 87.757 3.67 87.73 3.68 87.703 3.676 C 87.638 3.676 87.573 3.679 87.508 3.683 C 87.323 3.691 87.248 3.775 87.286 3.933 C 87.559 5.217 87.513 6.469 87.147 7.689 C 86.507 9.808 86.945 11.42 87.168 13.476 C 87.191 13.681 87.274 13.865 87.418 14.028 C 92.291 19.609 93.647 25.339 96.337 31.779 C 96.55 32.297 96.358 33.114 95.76 34.23 C 81.24 34.352 66.639 34.211 51.956 33.81 C 48.619 33.719 45.811 33.783 43.53 34.004 C 36.161 34.726 32.067 36.494 25.267 40.507 C 11.35 48.727 4.919 61.116 4.008 75.963 C -6.174 78.43 -16.308 80.791 -26.393 83.049 C -26.963 83.18 -27.567 83.124 -28.165 83.187 C -30.612 61.141 -23.188 39.441 -5.745 24.023 C 8.472 11.457 30.753 2.573 51.136 3.043 C 62.912 3.313 74.717 3.256 86.486 3.162 Z" style="" transform="matrix(1, 0, 0, 1, 2.2737367544323206e-13, 0)"/>
  <path fill="#a10f0f" d="M 86.486 3.162 C 108.028 3.564 129.568 3.798 151.105 3.864 C 173.483 3.933 195.841 4.579 218.233 4.504 C 220.949 4.496 223.484 4.805 225.839 5.432 C 226.258 5.539 226.402 6.011 226.103 6.304 C 216.838 15.395 207.362 24.067 197.676 32.318 C 196.001 33.747 195.299 34.851 192.817 34.857 C 161.676 34.937 135.215 34.791 113.432 34.418 C 104.329 34.264 98.439 34.201 95.76 34.23 C 96.358 33.114 96.55 32.297 96.337 31.779 C 93.647 25.339 92.291 19.609 87.418 14.028 C 87.274 13.865 87.191 13.681 87.168 13.476 C 86.945 11.42 86.507 9.808 87.147 7.689 C 87.513 6.469 87.559 5.217 87.286 3.933 C 87.248 3.775 87.323 3.691 87.508 3.683 C 87.573 3.679 87.638 3.676 87.703 3.676 C 87.761 3.684 87.807 3.631 87.784 3.581 C 87.774 3.559 87.751 3.542 87.724 3.538 L 86.486 3.162 Z" style="" transform="matrix(1, 0, 0, 1, 2.2737367544323206e-13, 0)"/>
  <path fill="#a10f0f" d="M 343.841 6.078 C 343.345 6.475 342.663 6.711 341.797 6.786 C 339.382 7 335.371 7.56 329.763 8.467 C 304.537 12.542 279.392 16.992 254.328 21.816 C 250.81 22.493 246.82 23.565 242.961 24.342 C 244.31 16.11 250.309 8.235 259.222 5.338 C 260.978 4.765 263.499 4.475 266.786 4.466 C 281.114 4.435 295.449 4.303 309.77 4.755 C 319.579 5.062 329.402 4.642 339.197 5.213 C 340.713 5.3 342.26 5.589 343.841 6.078 Z" style="" transform="matrix(1, 0, 0, 1, 2.2737367544323206e-13, 0)"/>
  <path fill="#fb7470" d="M 423.65 6.059 C 423.65 6.783 423.146 7.56 422.141 8.391 C 421.991 8.514 421.803 8.595 421.599 8.623 C 406.631 10.53 391.886 11.921 376.96 14.799 L 377.412 5.927 C 377.421 5.71 377.546 5.601 377.788 5.601 L 423.65 6.059 Z" style="" transform="matrix(1, 0, 0, 1, 2.2737367544323206e-13, 0)"/>
  <path fill="#e31c21" d="M 423.65 6.059 C 443.741 5.927 464.166 5.651 484.382 6.692 C 484.834 6.712 485.188 7.049 485.188 7.457 L 485.188 28.619 C 485.188 28.948 484.896 29.214 484.535 29.214 C 458.305 29.302 432.645 28.637 405.547 28.807 C 403.941 28.813 403.329 29.289 403.273 30.769 C 403.121 34.795 403.123 38.933 403.28 43.184 C 401.056 42.724 399.45 42.559 398.463 42.688 C 391.316 43.629 384.142 44.344 376.939 44.833 L 376.96 14.799 C 391.886 11.921 406.631 10.53 421.599 8.623 C 421.803 8.595 421.991 8.514 422.141 8.391 C 423.146 7.56 423.65 6.783 423.65 6.059 Z" style="" transform="matrix(1, 0, 0, 1, 2.2737367544323206e-13, 0)"/>
  <path fill="#fb7470" d="M 343.841 6.078 C 350.64 8.858 355.662 13.291 358.906 19.377 C 344.821 21.446 331.07 24.781 316.478 24.894 C 314.147 24.911 311.049 25.568 307.183 26.863 C 306.979 26.926 306.859 27.054 306.822 27.245 C 306.789 27.413 306.803 27.574 306.864 27.728 L 271.721 27.521 C 270.387 27.514 269.286 28.458 269.226 29.659 L 268.955 35.089 L 242.829 40.343 L 242.961 24.342 C 246.82 23.565 250.81 22.493 254.328 21.816 C 279.392 16.992 304.537 12.542 329.763 8.467 C 335.371 7.56 339.382 7 341.797 6.786 C 342.663 6.711 343.345 6.475 343.841 6.078 Z" style="" transform="matrix(1, 0, 0, 1, 2.2737367544323206e-13, 0)"/>
  <path fill="#e31c21" d="M 611.123 10.291 C 605.284 11.301 599.228 12.172 593.639 13.332 C 575.874 17.015 556.135 21.496 534.422 26.775 C 532.123 27.336 530.531 28.339 529.646 29.785 C 517.554 29.994 505.641 29.779 493.906 29.139 C 493.187 29.101 492.815 28.759 492.787 28.111 C 492.481 21.08 492.603 14.053 493.155 7.031 C 493.183 6.684 493.389 6.513 493.774 6.517 L 610.101 7.445 C 610.407 7.445 610.588 7.581 610.644 7.852 L 611.123 10.291 Z" style="" transform="matrix(1, 0, 0, 1, 2.2737367544323206e-13, 0)"/>
  <path fill="#b50a10" d="M 648.483 18.273 C 644.655 17.893 640.808 17.536 636.943 17.201 C 632.25 16.8 627.426 16.756 622.462 15.458 L 622.49 8.304 C 622.489 8.023 622.735 7.794 623.046 7.783 C 631.277 7.529 639.496 7.662 647.704 8.185 C 648.135 8.215 648.482 8.515 648.532 8.899 C 648.856 11.696 648.84 14.821 648.483 18.273 Z" style="" transform="matrix(1, 0, 0, 1, 2.2737367544323206e-13, 0)"/>
  <path fill="#4691ca" d="M -52.907 45.422 C -63.328 52.087 -80.361 48.883 -86.77 38.795 C -95.286 25.377 -82.898 7.043 -65.595 7.758 C -55.188 8.185 -44.774 14.593 -43.557 24.9 C -42.491 33.904 -45.608 40.745 -52.907 45.422 Z" style="" transform="matrix(1, 0, 0, 1, 2.2737367544323206e-13, 0)"/>
  <path fill="#e31c21" d="M 685.551 72.296 C 684.234 70.431 682.562 68.856 680.532 67.568 C 680.289 67.416 679.971 67.403 679.718 67.537 C 672.585 71.32 665.589 75.299 658.73 79.475 C 658.698 79.496 658.668 79.492 658.64 79.462 C 658.598 79.425 658.554 79.387 658.508 79.349 C 658.452 79.299 658.452 79.252 658.508 79.205 C 664.549 74.321 672.891 70.258 679.76 66.464 C 680.08 66.285 680.19 65.913 680.01 65.618 C 677.549 61.589 676.024 57.285 675.436 52.708 C 674.615 46.287 665.501 37.986 660.315 33.497 C 659.541 32.824 658.343 32.673 656.721 33.045 L 657.201 8.717 C 657.208 8.449 657.452 8.235 657.75 8.235 C 671.58 8.206 685.444 8.208 699.344 8.241 C 704.432 8.254 710.335 8.586 714.992 8.623 C 731.649 8.766 748.081 8.847 764.289 8.868 C 765.011 8.868 765.601 9.389 765.617 10.04 C 765.783 16.867 765.751 23.473 765.519 29.86 C 765.464 31.294 764.643 32.013 763.058 32.017 C 737.169 32.098 710.223 31.139 683.862 31.81 C 683.438 31.82 683.098 32.122 683.083 32.5 C 682.837 37.365 682.902 42.072 683.278 46.62 C 683.368 47.711 684.626 48.407 685.885 48.426 C 705.253 48.752 724.616 48.959 743.975 49.046 C 745.439 49.055 746.892 49.19 748.334 49.454 C 749.648 49.698 749.412 50.526 749.384 51.498 C 749.198 58.09 749.138 64.847 749.203 71.769 C 749.207 72.317 748.712 72.763 748.105 72.76 L 685.551 72.296 Z" style="" transform="matrix(1, 0, 0, 1, 2.2737367544323206e-13, 0)"/>
  <path fill="#b50a10" d="M 611.123 10.291 C 611.811 16.699 610.998 23.521 610.644 29.979 C 610.625 30.343 610.414 30.521 610.011 30.512 C 595.238 30.299 580.681 30.349 566.137 30.493 C 565.912 30.493 565.724 30.649 565.706 30.851 L 565.463 33.635 C 554.84 35.183 548.326 41.384 538.871 44.933 C 538.892 40.3 539.824 34.487 538.183 30.142 C 538.104 29.942 537.947 29.839 537.71 29.835 L 529.646 29.785 C 530.531 28.339 532.123 27.336 534.422 26.775 C 556.135 21.496 575.874 17.015 593.639 13.332 C 599.228 12.172 605.284 11.301 611.123 10.291 Z" style="" transform="matrix(1, 0, 0, 1, 2.2737367544323206e-13, 0)"/>
  <path fill="#a10f0f" d="M 622.462 15.458 C 627.426 16.756 632.25 16.8 636.943 17.201 C 640.808 17.536 644.655 17.893 648.483 18.273 L 647.572 111.96 C 647.565 112.721 646.875 113.331 646.036 113.32 L 622.552 113.013 C 622.241 113.009 622.066 112.869 622.024 112.593 C 621.343 108.204 621.101 103.827 621.301 99.464 C 622.045 83.143 621.447 66.859 622.031 50.551 C 622.448 38.843 622.591 27.145 622.462 15.458 Z M 644.867 87.256 C 644.808 87.18 644.691 87.161 644.605 87.214 L 623.43 100.538 C 623.345 100.592 623.324 100.697 623.383 100.773 L 623.471 100.887 C 623.53 100.963 623.646 100.982 623.732 100.929 L 644.908 87.605 C 644.992 87.552 645.013 87.446 644.954 87.369 L 644.867 87.256 Z" style="" transform="matrix(1, 0, 0, 1, 2.2737367544323206e-13, 0)"/>
  <path fill="#e31c21" d="M 358.906 19.377 C 360.846 24.75 360.957 30.224 359.865 35.722 C 359.801 36.035 359.528 36.276 359.184 36.324 C 357.516 36.555 355.819 36.65 354.095 36.613 C 347.583 36.471 341.113 36.408 334.685 36.425 C 334.331 36.428 334.039 36.177 334.032 35.86 L 333.851 28.788 C 333.847 28.572 333.657 28.397 333.42 28.393 L 306.864 27.728 C 306.803 27.574 306.789 27.413 306.822 27.245 C 306.859 27.054 306.979 26.926 307.183 26.863 C 311.049 25.568 314.147 24.911 316.478 24.894 C 331.07 24.781 344.821 21.446 358.906 19.377 Z" style="" transform="matrix(1, 0, 0, 1, 2.2737367544323206e-13, 0)"/>
  <path fill="#b50a10" d="M 685.551 72.296 C 684.012 72.651 683.208 73.336 683.139 74.352 C 682.263 86.942 682.423 99.533 682.457 112.091 C 682.461 112.865 682.035 113.251 681.178 113.251 L 657.298 113.207 C 656.729 113.207 656.269 112.789 656.269 112.273 L 656.721 33.045 C 658.343 32.673 659.541 32.824 660.315 33.497 C 665.501 37.986 674.615 46.287 675.436 52.708 C 676.024 57.285 677.549 61.589 680.01 65.618 C 680.19 65.913 680.08 66.285 679.76 66.464 C 672.891 70.258 664.549 74.321 658.508 79.205 C 658.452 79.252 658.452 79.299 658.508 79.349 C 658.554 79.387 658.598 79.425 658.64 79.462 C 658.668 79.492 658.698 79.496 658.73 79.475 C 665.589 75.299 672.585 71.32 679.718 67.537 C 679.971 67.403 680.289 67.416 680.532 67.568 C 682.562 68.856 684.234 70.431 685.551 72.296 Z" style="" transform="matrix(1, 0, 0, 1, 2.2737367544323206e-13, 0)"/>
  <path fill="#840a07" d="M 565.463 33.635 C 564.883 44.724 564.644 55.743 564.747 66.69 C 564.872 80.748 564.086 94.78 564.316 108.856 C 564.336 110.511 564.615 112.58 561.827 112.486 C 554.374 112.227 546.915 112.116 539.448 112.154 C 538.456 112.158 537.975 111.686 538.002 110.737 C 538.484 95.342 538.667 79.943 538.552 64.54 C 538.51 58.476 538.948 51.467 538.871 44.933 C 548.326 41.384 554.84 35.183 565.463 33.635 Z" style="" transform="matrix(1, 0, 0, 1, 2.2737367544323206e-13, 0)"/>
  <path fill="#e31c21" d="M 268.955 35.089 L 269.156 43.554 C 269.169 44.089 269.634 44.525 270.227 44.557 C 275.64 44.87 281.394 44.858 287.489 44.519 C 287.064 46.864 285.486 48.545 282.775 49.134 C 275.323 50.752 267.627 52.269 260.515 54.181 C 255.959 55.41 251.354 56.704 246.701 58.063 C 245.464 56.286 244.606 54.721 244.129 53.366 C 242.776 49.513 242.342 45.171 242.829 40.343 L 268.955 35.089 Z" style="" transform="matrix(1, 0, 0, 1, 2.2737367544323206e-13, 0)"/>
  <path fill="#b50a10" d="M 403.28 43.184 L 403.336 44.682 C 403.368 45.447 403.806 45.834 404.65 45.842 L 458.569 46.394 C 459.079 47.222 459.1 47.782 458.632 48.074 C 454.593 50.582 449.587 51.065 445.534 52.338 C 434.156 55.908 422.908 59.771 411.79 63.925 C 400.062 68.314 388.049 72.126 376.286 76.81 L 376.939 44.833 C 384.142 44.344 391.316 43.629 398.463 42.688 C 399.45 42.559 401.056 42.724 403.28 43.184 Z" style="" transform="matrix(1, 0, 0, 1, 2.2737367544323206e-13, 0)"/>
  <path fill="#b50a10" d="M 287.489 44.519 C 299.853 44.917 315.002 45.165 332.933 45.265 C 344.439 45.334 354.777 50.94 358.545 61.11 C 348.765 62.569 339.575 65.242 330.973 69.129 C 309.144 68.971 287.409 68.709 265.771 68.345 C 263.703 68.308 261.919 68.032 260.418 67.518 C 255.013 65.671 250.442 62.519 246.701 58.063 C 251.354 56.704 255.959 55.41 260.515 54.181 C 267.627 52.269 275.323 50.752 282.775 49.134 C 285.486 48.545 287.064 46.864 287.489 44.519 Z" style="" transform="matrix(1, 0, 0, 1, 2.2737367544323206e-13, 0)"/>
  <path fill="#840a07" d="M 458.569 46.394 L 468.01 47.034 C 468.388 47.063 468.678 47.346 468.677 47.686 L 468.677 69.53 C 468.677 69.867 468.375 70.139 468.003 70.139 C 459.526 70.139 451.006 70.139 442.441 70.139 C 431.693 70.139 419.93 69.637 409.412 69.643 C 408.003 69.643 406.371 69.796 404.518 70.101 C 404.288 70.138 404.084 70.245 403.941 70.402 C 401.563 72.966 402.683 82.672 403.28 85.876 C 403.359 86.307 403.748 86.638 404.233 86.685 C 407.059 86.949 409.958 87.091 412.93 87.112 C 427.911 87.231 442.941 86.974 457.902 87.482 C 466.429 87.77 474.927 87.895 483.395 87.858 C 483.68 87.855 483.916 88.062 483.923 88.322 C 484.025 94.17 484.118 100.022 484.201 105.878 C 484.224 107.512 484.016 109.107 483.576 110.662 C 483.446 111.123 483.007 111.459 482.484 111.496 C 481.668 111.555 480.774 111.586 479.801 111.59 C 469.326 111.636 458.854 111.536 448.385 111.289 C 424.665 110.737 400.889 111.715 377.211 110.386 C 376.673 110.353 376.257 109.953 376.258 109.471 L 376.286 76.81 C 388.049 72.126 400.062 68.314 411.79 63.925 C 422.908 59.771 434.156 55.908 445.534 52.338 C 449.587 51.065 454.593 50.582 458.632 48.074 C 459.1 47.782 459.079 47.222 458.569 46.394 Z" style="" transform="matrix(1, 0, 0, 1, 2.2737367544323206e-13, 0)"/>
  <path fill="#457bc3" d="M -81.035 96.981 C -89.607 95.683 -96.892 90.836 -99.02 82.879 C -100.841 76.058 -99.586 70.055 -95.252 64.872 C -82.544 49.667 -54.875 55.724 -54.054 75.838 C -53.693 84.66 -60.415 95.394 -70.927 97.131 C -73.833 97.612 -77.202 97.562 -81.035 96.981 Z" style="" transform="matrix(1, 0, 0, 1, 2.2737367544323206e-13, 0)"/>
  <path fill="#b50a10" d="M 74.042 59.292 C 63.786 62.176 53.291 64.701 42.557 66.866 C 46.339 60.846 51.198 58.307 58.922 58.608 C 63.927 58.809 68.968 59.037 74.042 59.292 Z" style="" transform="matrix(1, 0, 0, 1, 2.2737367544323206e-13, 0)"/>
  <path fill="#fb7470" d="M 141.762 59.718 C 137.688 63.467 132.251 63.028 126.968 64.364 C 113.954 67.646 100.935 70.91 87.912 74.158 C 85.124 74.854 81.683 75.343 79.361 75.913 C 69.016 78.451 58.704 81.097 48.424 83.851 C 48.197 83.914 48.007 84.027 47.854 84.19 L 46.777 85.325 C 43.115 82.328 40.944 78.885 40.263 74.998 C 39.748 72.06 40.513 69.349 42.557 66.866 C 53.291 64.701 63.786 62.176 74.042 59.292 C 82.737 58.92 91.468 58.913 100.237 59.273 C 114.086 59.843 127.851 59.605 141.762 59.718 Z" style="" transform="matrix(1, 0, 0, 1, 2.2737367544323206e-13, 0)"/>
  <path fill="#e31c21" d="M 231.386 103.006 C 228.202 100.498 224.972 100.039 221.695 101.627 C 219.071 102.902 216.884 104.281 215.133 105.765 C 211.219 109.088 207.075 112.142 203.446 115.747 C 202.96 116.228 201.965 116.33 200.464 116.054 C 198.385 110.919 195.632 106.329 191.322 102.392 C 183.48 95.244 174.603 90.849 163.243 90.566 C 140.329 90.002 117.423 90.447 94.544 89.858 C 81.829 89.532 69.009 89.946 56.44 88.466 C 52.45 87.994 49.228 86.947 46.777 85.325 L 47.854 84.19 C 48.007 84.027 48.197 83.914 48.424 83.851 C 58.704 81.097 69.016 78.451 79.361 75.913 C 81.683 75.343 85.124 74.854 87.912 74.158 C 100.935 70.91 113.954 67.646 126.968 64.364 C 132.251 63.028 137.688 63.467 141.762 59.718 C 151.216 59.409 159.385 59.539 166.267 60.107 C 195.75 62.546 219.095 79.061 231.386 103.006 Z M 108.608 70.101 C 106.105 70.431 104.534 70.695 103.894 70.891 C 97.443 72.919 90.873 74.532 84.185 75.732 C 81.729 76.175 79.453 76.722 77.359 77.374 C 70.831 79.406 64.018 80.741 58.282 82.729 C 55.738 83.613 52.797 84.165 50.114 85.237 C 49.824 85.357 49.721 85.68 49.898 85.914 C 50.194 86.307 50.531 86.378 50.906 86.127 C 52.408 85.13 53.923 84.836 56.225 84.246 C 58.929 83.556 62.162 81.995 65.45 81.23 C 69.44 80.299 73.386 79.233 77.289 78.033 C 82.489 76.434 87.912 75.913 93.376 74.396 C 104.158 71.405 115.198 69.587 125.842 66.27 C 129.053 65.273 132.835 64.784 136.353 63.762 C 136.561 63.687 136.602 63.436 136.425 63.311 C 136.372 63.274 136.308 63.254 136.242 63.254 C 130.103 63.693 124.027 66.132 118.055 67.461 C 114.677 68.22 111.958 69.662 108.608 70.101 Z" style="" transform="matrix(1, 0, 0, 1, 2.2737367544323206e-13, 0)"/>
  <path fill="#a10f0f" d="M 358.545 61.11 C 359.462 63.63 359.904 66.08 359.872 68.458 C 359.779 74.745 359.726 81.038 359.712 87.337 C 359.708 89.574 359.432 91.453 358.885 92.974 C 353.546 107.853 342.764 110.681 326.691 110.267 C 309.742 109.832 292.788 109.68 275.83 109.809 C 269.052 109.859 260.292 109.646 254.536 106.204 C 243.337 99.507 240.584 88.993 242.871 77.525 C 242.97 77.017 243.47 76.651 244.046 76.666 L 267.543 77.374 C 267.792 77.381 267.999 77.546 268.03 77.763 C 268.746 82.44 267.231 85.569 273.953 85.607 C 293.766 85.726 313.002 86.265 332.551 86.039 C 332.907 86.033 333.197 85.778 333.212 85.456 C 333.424 80.424 333.351 75.421 332.989 70.446 C 332.915 69.414 332.242 68.975 330.973 69.129 C 339.575 65.242 348.765 62.569 358.545 61.11 Z" style="" transform="matrix(1, 0, 0, 1, 2.2737367544323206e-13, 0)"/>
  <path fill="#fb7470" d="M 108.608 70.101 C 111.958 69.662 114.677 68.22 118.055 67.461 C 124.027 66.132 130.103 63.693 136.242 63.254 C 136.466 63.252 136.609 63.47 136.499 63.647 C 136.466 63.699 136.414 63.74 136.353 63.762 C 132.835 64.784 129.053 65.273 125.842 66.27 C 115.198 69.587 104.158 71.405 93.376 74.396 C 87.912 75.913 82.489 76.434 77.289 78.033 C 73.386 79.233 69.44 80.299 65.45 81.23 C 62.162 81.995 58.929 83.556 56.225 84.246 C 53.923 84.836 52.408 85.13 50.906 86.127 C 50.531 86.378 50.194 86.307 49.898 85.914 C 49.721 85.68 49.824 85.357 50.114 85.237 C 52.797 84.165 55.738 83.613 58.282 82.729 C 64.018 80.741 70.831 79.406 77.359 77.374 C 79.453 76.722 81.729 76.175 84.185 75.732 C 90.873 74.532 97.443 72.919 103.894 70.891 C 104.534 70.695 106.105 70.431 108.608 70.101 Z" style="" transform="matrix(1, 0, 0, 1, 2.2737367544323206e-13, 0)"/>
  <path fill="#fb7470" d="M 4.008 75.963 C 4.773 81.498 6.275 86.75 8.513 91.72 C -2.554 93.902 -13.42 96.552 -24.084 99.67 C -25.841 94.345 -27.202 88.851 -28.165 83.187 C -27.567 83.124 -26.963 83.18 -26.393 83.049 C -16.308 80.791 -6.174 78.43 4.008 75.963 Z" style="" transform="matrix(1, 0, 0, 1, 2.2737367544323206e-13, 0)"/>
  <rect fill="#e31c21" x="-12.691" y="-0.246" transform="matrix(0.846405029296875, -0.532539963722229, 0.6146969795227051, 0.7947129607200623, 634.1685791015627, 94.07157897949219)" width="25.383" height="0.492" rx="0.27" style=""/>
  <path fill="#e31c21" d="M 8.513 91.72 C 11.885 98.373 15.187 102.241 21.041 106.881 C 29.362 113.477 41.702 116.405 52.498 116.857 C 55.001 116.961 58.111 117.005 61.828 116.988 C 84.384 116.875 107.11 117.112 130.006 117.697 C 129.032 119.001 127.76 120.201 126.189 121.296 C 123.29 123.315 120.989 122.989 118.271 126.017 C 114.364 130.375 109.741 133.109 105.055 137.742 C 102.566 140.2 101.802 143.761 101.134 146.928 C 85.068 147.091 69.023 146.301 52.943 146.294 C 46.927 146.291 42.307 146.073 39.081 145.642 C 20.311 143.122 4.829 135.416 -8.345 123.014 C -15.596 116.192 -20.532 108.474 -24.084 99.67 C -13.42 96.552 -2.554 93.902 8.513 91.72 Z" style="" transform="matrix(1, 0, 0, 1, 2.2737367544323206e-13, 0)"/>
  <path fill="#b50a10" d="M 231.386 103.006 C 233.648 108.641 235.478 114.453 236.878 120.443 C 238.415 127.014 237.664 134.331 237.031 140.99 L 232.679 142.695 C 232.638 142.595 232.521 142.545 232.332 142.545 C 232.229 142.545 232.118 142.576 231.998 142.639 C 217.885 150.097 203.812 157.605 189.779 165.167 C 188.194 166.02 187.355 166.741 187.262 167.33 C 185.644 168.865 184.048 169.972 182.472 170.653 C 179.181 172.079 176.97 173.143 175.84 173.845 C 175.497 173.435 174.957 173.444 174.22 173.87 C 159.552 182.334 144.855 190.759 130.131 199.144 C 129.607 199.442 129.5 199.719 129.811 199.978 C 129.389 200.743 129.16 201.533 129.123 202.348 C 129.118 202.511 129.026 202.593 128.845 202.593 L 124.375 202.618 L 93.251 202.593 C 89.862 200.21 88.541 197.598 89.288 194.755 C 90.924 188.519 93.213 182.318 96.157 176.152 C 96.474 175.489 95.883 174.762 95.086 174.836 C 94.316 174.903 93.383 174.957 92.284 174.999 C 91.909 175.011 91.735 174.851 91.763 174.516 C 91.777 174.34 91.881 174.252 92.076 174.252 C 92.766 174.24 93.107 173.799 93.098 172.929 C 113.119 173.46 132.064 173.619 149.93 173.406 C 154.178 173.35 158.224 172.741 162.986 172.39 C 170.591 171.838 176.417 168.879 182.841 165.97 C 183.995 165.447 185 164.768 185.858 163.932 C 188.291 161.543 189.876 160.233 192.261 158.496 C 193.78 157.384 194.972 156.264 195.834 155.135 C 204.6 143.642 207.451 128.97 200.464 116.054 C 201.965 116.33 202.96 116.228 203.446 115.747 C 207.075 112.142 211.219 109.088 215.133 105.765 C 216.884 104.281 219.071 102.902 221.695 101.627 C 224.972 100.039 228.202 100.498 231.386 103.006 Z" style="" transform="matrix(1, 0, 0, 1, 2.2737367544323206e-13, 0)"/>
  <path fill="#457bc3" d="M -72.922 141.498 C -84.699 135.548 -87.236 120.951 -79.422 111.42 C -76.009 107.257 -68.389 102.153 -62.007 103.42 C -60.867 103.646 -59.642 103.786 -58.33 103.84 C -40.185 104.58 -33.317 122.606 -42.18 135.309 C -48.827 144.84 -62.751 146.639 -72.922 141.498 Z" style="" transform="matrix(1, 0, 0, 1, 2.2737367544323206e-13, 0)"/>
  <path fill="#b50a10" d="M 130.006 117.697 C 136.016 117.647 142.179 117.618 148.491 117.609 C 151.578 117.609 154.02 117.883 155.818 118.43 C 174.776 124.211 170.285 147.918 150.445 147.461 C 133.982 147.084 117.545 146.907 101.134 146.928 C 101.802 143.761 102.566 140.2 105.055 137.742 C 109.741 133.109 114.364 130.375 118.271 126.017 C 120.989 122.989 123.29 123.315 126.189 121.296 C 127.76 120.201 129.032 119.001 130.006 117.697 Z" style="" transform="matrix(1, 0, 0, 1, 2.2737367544323206e-13, 0)"/>
  <path fill="#4691ca" d="M 276.338 161.223 C 269.4 159.236 259.361 159.969 252.082 160.734 L 252.506 128.099 C 252.51 127.773 252.804 127.509 253.167 127.509 L 275.545 127.509 C 276.021 127.509 276.407 127.858 276.407 128.287 L 276.338 161.223 Z" style="" transform="matrix(1, 0, 0, 1, 2.2737367544323206e-13, 0)"/>
  <path fill="#457bc3" d="M 764.609 145.786 C 759.13 146.175 753.719 146.447 748.376 146.602 C 747.361 146.633 746.457 147.015 745.519 147.329 C 745.3 147.4 745.081 147.423 744.858 147.398 C 744.38 147.352 744.003 147.59 743.725 148.113 C 739.797 144.075 736.829 142.407 730.94 142.407 C 636.398 142.403 541.921 142.401 447.509 142.401 C 447.198 142.402 446.939 142.185 446.918 141.905 C 446.524 137.303 446.475 132.703 446.772 128.105 C 446.786 127.896 446.906 127.785 447.133 127.773 C 456.824 127.302 464.235 127.522 472.404 127.516 C 522.931 127.503 573.534 127.058 624.054 127.679 C 630.86 127.76 638.09 127.503 644.444 127.572 C 673.295 127.879 701.499 127.359 732.372 127.654 C 736.733 127.696 740.152 128.011 742.626 128.6 C 752.756 131.002 760.597 136.676 764.609 145.786 Z" style="" transform="matrix(1, 0, 0, 1, 2.2737367544323206e-13, 0)"/>
  <path fill="#457bc3" d="M -30.64 176.848 C -37.995 174.961 -42.688 169.794 -44.753 163.512 C -48.479 152.176 -40.915 139.535 -27.672 137.291 C -18.738 135.78 -7.358 139.316 -3.493 147.385 C 4.669 164.471 -9.52 182.265 -30.64 176.848 Z" style="" transform="matrix(1, 0, 0, 1, 2.2737367544323206e-13, 0)"/>
  <path fill="#a10f0f" d="M 237.031 140.99 C 236.178 144.338 235.286 147.667 234.355 150.978 C 232.672 156.947 229.815 162.22 226.242 167.738 C 215.404 184.479 196.341 196.875 175.479 200.862 C 170.049 201.903 161.748 203.276 154.949 203.22 C 144.758 203.132 134.566 202.931 124.375 202.618 L 128.845 202.593 C 129.026 202.593 129.118 202.511 129.123 202.348 C 129.16 201.533 129.389 200.743 129.811 199.978 L 175.84 173.845 C 176.97 173.143 179.181 172.079 182.472 170.653 C 184.048 169.972 185.644 168.865 187.262 167.33 L 232.679 142.695 L 237.031 140.99 Z" style="" transform="matrix(1, 0, 0, 1, 2.2737367544323206e-13, 0)"/>
  <path fill="#e31c21" d="M 232.679 142.695 L 187.262 167.33 C 187.355 166.741 188.194 166.02 189.779 165.167 C 203.812 157.605 217.885 150.097 231.998 142.639 C 232.118 142.576 232.229 142.545 232.332 142.545 C 232.521 142.545 232.638 142.595 232.679 142.695 Z" style="" transform="matrix(1, 0, 0, 1, 2.2737367544323206e-13, 0)"/>
  <path fill="#4691ca" d="M 764.609 145.786 C 766.392 149.666 767.482 154.078 767.876 159.023 C 761.626 158.653 754.779 157.656 748.57 158.74 C 747.646 154.665 747.389 151.605 743.725 148.113 C 744.003 147.59 744.38 147.352 744.858 147.398 C 745.081 147.423 745.3 147.4 745.519 147.329 C 746.457 147.015 747.361 146.633 748.376 146.602 C 753.719 146.447 759.13 146.175 764.609 145.786 Z" style="" transform="matrix(1, 0, 0, 1, 2.2737367544323206e-13, 0)"/>
  <rect fill="#3cafdc" x="446.612" y="154.634" width="184.366" height="17.08" rx="1.89" style="" transform="matrix(1, 0, 0, 1, 2.2737367544323206e-13, 0)"/>
  <path fill="#2cdbf1" d="M 767.876 159.023 C 769.989 178.453 762.704 201.032 736.272 201.032 C 707.44 201.028 678.61 201.025 649.783 201.025 C 649.547 201.025 649.428 200.919 649.428 200.706 L 649.428 185.369 C 649.428 184.742 649.776 184.429 650.471 184.429 C 679.025 184.412 707.064 184.406 734.59 184.41 C 742.189 184.416 747.854 173.832 748.563 168.196 C 748.772 166.521 749.78 164.321 749.314 162.81 C 748.925 161.539 748.677 160.182 748.57 158.74 C 754.779 157.656 761.626 158.653 767.876 159.023 Z" style="" transform="matrix(1, 0, 0, 1, 2.2737367544323206e-13, 0)"/>
  <path fill="#3cafdc" d="M 276.338 161.223 C 276.351 167.054 276.397 172.896 276.477 178.748 C 276.511 181.269 277.193 182.849 279.57 184.021 C 278.583 184.682 277.793 184.759 277.2 184.253 C 275.651 182.928 274.071 182.213 272.458 182.109 C 266.781 181.741 260.874 181.563 254.738 181.576 C 254.122 181.576 253.629 182.037 253.653 182.592 C 253.685 183.315 253.153 183.557 252.054 183.319 L 252.082 160.734 C 259.361 159.969 269.4 159.236 276.338 161.223 Z" style="" transform="matrix(1, 0, 0, 1, 2.2737367544323206e-13, 0)"/>
  <path fill="#e31c21" d="M 93.098 172.929 C 93.107 173.799 92.766 174.24 92.076 174.252 C 91.881 174.252 91.777 174.34 91.763 174.516 C 91.735 174.851 91.909 175.011 92.284 174.999 C 93.383 174.957 94.316 174.903 95.086 174.836 C 95.883 174.762 96.474 175.489 96.157 176.152 C 93.213 182.318 90.924 188.519 89.288 194.755 C 88.541 197.598 89.862 200.21 93.251 202.593 C 80.174 202.787 67.341 202.875 54.431 203.101 C 39.137 203.377 21.771 202.442 8.346 201.928 C 0.039 201.615 -8.463 201.684 -16.861 201.558 C -17.054 201.555 -17.244 201.512 -17.418 201.433 C -18.544 200.906 -18.606 200.196 -17.605 199.301 C -7.81 190.58 1.304 181.049 11.315 172.578 C 11.486 172.437 11.688 172.365 11.92 172.365 L 93.098 172.929 Z" style="" transform="matrix(1, 0, 0, 1, 2.2737367544323206e-13, 0)"/>
  <path fill="#e31c21" d="M 175.84 173.845 L 129.811 199.978 C 129.5 199.719 129.607 199.442 130.131 199.144 C 144.855 190.759 159.552 182.334 174.22 173.87 C 174.957 173.444 175.497 173.435 175.84 173.845 Z" style="" transform="matrix(1, 0, 0, 1, 2.2737367544323206e-13, 0)"/>
  <path fill="#2cdbf1" d="M 279.57 184.021 C 280.064 184.19 280.752 184.41 281.287 184.41 C 395.832 184.41 510.377 184.45 624.923 184.529 C 626.536 184.533 628.146 184.565 629.754 184.623 C 630.033 184.636 630.19 184.765 630.227 185.012 C 630.982 190.22 631.054 195.433 630.443 200.649 C 630.415 200.9 630.262 201.025 629.984 201.025 L 252.298 201.025 C 252.052 201.025 251.931 200.917 251.936 200.699 L 252.054 183.319 C 253.153 183.557 253.685 183.315 253.653 182.592 C 253.629 182.037 254.122 181.576 254.738 181.576 C 260.874 181.563 266.781 181.741 272.458 182.109 C 274.071 182.213 275.651 182.928 277.2 184.253 C 277.793 184.759 278.583 184.682 279.57 184.021 Z" style="" transform="matrix(1, 0, 0, 1, 2.2737367544323206e-13, 0)"/>
</svg>